<svg width="25" height="25" viewBox="0 0 25 25" fill="none" xmlns="http://www.w3.org/2000/svg">
<path d="M14.5833 3.125H6.25C5.42196 3.12747 4.62854 3.45751 4.04302 4.04302C3.45751 4.62854 3.12747 5.42196 3.125 6.25V14.5833C3.12747 15.4114 3.45751 16.2048 4.04302 16.7903C4.62854 17.3758 5.42196 17.7059 6.25 17.7083H14.5833C15.4114 17.7059 16.2048 17.3758 16.7903 16.7903C17.3758 16.2048 17.7059 15.4114 17.7083 14.5833V6.25C17.7059 5.42196 17.3758 4.62854 16.7903 4.04302C16.2048 3.45751 15.4114 3.12747 14.5833 3.125ZM12.5 11.4583H11.4583V12.5C11.4583 12.7763 11.3486 13.0412 11.1532 13.2366C10.9579 13.4319 10.6929 13.5417 10.4167 13.5417C10.1404 13.5417 9.87545 13.4319 9.6801 13.2366C9.48475 13.0412 9.375 12.7763 9.375 12.5V11.4583H8.33333C8.05707 11.4583 7.79211 11.3486 7.59676 11.1532C7.40141 10.9579 7.29167 10.6929 7.29167 10.4167C7.29167 10.1404 7.40141 9.87545 7.59676 9.6801C7.79211 9.48475 8.05707 9.375 8.33333 9.375H9.375V8.33333C9.375 8.05707 9.48475 7.79211 9.6801 7.59676C9.87545 7.40141 10.1404 7.29167 10.4167 7.29167C10.6929 7.29167 10.9579 7.40141 11.1532 7.59676C11.3486 7.79211 11.4583 8.05707 11.4583 8.33333V9.375H12.5C12.7763 9.375 13.0412 9.48475 13.2366 9.6801C13.4319 9.87545 13.5417 10.1404 13.5417 10.4167C13.5417 10.6929 13.4319 10.9579 13.2366 11.1532C13.0412 11.3486 12.7763 11.4583 12.5 11.4583Z" fill="white"/>
<path d="M15.125 21.875H5.74998C5.47371 21.875 5.20876 21.7653 5.01341 21.5699C4.81806 21.3746 4.70831 21.1096 4.70831 20.8333C4.70831 20.5571 4.81806 20.2921 5.01341 20.0968C5.20876 19.9014 5.47371 19.7917 5.74998 19.7917H15.125C15.9538 19.7917 16.7486 19.4624 17.3347 18.8764C17.9207 18.2903 18.25 17.4955 18.25 16.6667V7.29167C18.25 7.0154 18.3597 6.75045 18.5551 6.5551C18.7504 6.35975 19.0154 6.25 19.2916 6.25C19.5679 6.25 19.8329 6.35975 20.0282 6.5551C20.2236 6.75045 20.3333 7.0154 20.3333 7.29167V16.6667C20.3317 18.0475 19.7824 19.3713 18.806 20.3477C17.8296 21.3241 16.5058 21.8733 15.125 21.875Z" fill="white"/>
</svg>
