<svg width="26" height="26" viewBox="0 0 26 26" fill="none" xmlns="http://www.w3.org/2000/svg">
<path d="M18.212 5.94515V1.56156C18.212 0.862728 17.6405 0.290955 16.9414 0.290955H1.27061C0.571773 0.290955 0 0.862728 0 1.56156V2.38746V18.9477V19.5197C0 19.9854 0.275298 20.4301 0.677657 20.6418L10.3343 25.6398C10.7578 25.8515 11.266 25.5553 11.266 25.068V20.1973H16.9414C17.6405 20.1973 18.212 19.6258 18.212 18.9267V11.9807H15.6708V17.0208C15.6708 17.3808 15.3955 17.6561 15.0355 17.6561H11.2872V11.1337V7.0042V6.87714C11.2872 6.41125 11.0119 5.96654 10.6096 5.75477L4.91301 2.83238H15.0355C15.3955 2.83238 15.6708 3.10768 15.6708 3.46768V5.96654H18.212V5.94515Z" fill="#A5A4AF"/>
<path d="M21.4733 3.8696L25.6028 7.99907C26.1322 8.52849 26.1322 9.31203 25.6028 9.84145L21.4733 13.9709C20.9439 14.5003 20.1389 14.5217 19.6095 13.9923C19.1015 13.4843 19.1648 12.637 19.6521 12.1288L21.5154 10.2864H14.2944C13.9346 10.2864 13.5743 10.1381 13.3414 9.86284C12.7485 9.22754 12.8967 8.10517 13.6591 7.68163C13.8496 7.57575 14.0826 7.51222 14.2944 7.51222H21.5156C21.5156 7.51222 19.6735 5.66984 19.6523 5.66984C19.165 5.18277 19.1015 4.31452 19.6097 3.82746C20.118 3.31921 20.9439 3.34018 21.4733 3.8696Z" fill="#A5A4AF"/>
</svg>
