<svg width="193" height="75" viewBox="0 0 193 75" fill="none" xmlns="http://www.w3.org/2000/svg">
<g filter="url(#filter0_dd_22_84)">
<g clip-path="url(#clip0_22_84)">
<path d="M74.15 9.416H70.75V5.13668C70.7517 4.66402 70.3725 4.27942 69.903 4.27782C69.8781 4.27771 69.8533 4.27878 69.8286 4.28081L67.6109 4.4691C62.2331 4.91693 56.9584 6.21196 51.9794 8.3068L49.5 9.34496L47.0231 8.31022C42.0436 6.21507 36.7683 4.91982 31.3899 4.47167L29.1714 4.28081C28.7036 4.24112 28.2924 4.59074 28.253 5.06179C28.2508 5.08671 28.2499 5.11175 28.25 5.13668V9.416H24.85C24.3806 9.416 24 9.79921 24 10.2719V46.2182C24 46.6908 24.3806 47.074 24.85 47.074H74.15C74.6194 47.074 75 46.6908 75 46.2182V10.2719C75 9.79921 74.6194 9.416 74.15 9.416ZM52.6331 9.88843C57.4491 7.86239 62.5511 6.61015 67.7529 6.17741L69.05 6.06786V40.2947L67.6534 40.4094C62.2741 40.8591 56.9973 42.151 52.0134 44.2385L50.35 44.9344V10.8427L52.6331 9.88843ZM29.95 6.06786L31.2471 6.17741C36.4497 6.61026 41.5526 7.86282 46.3694 9.88929L48.65 10.8427V44.9344L47.0826 44.2753C42.1069 42.1763 36.8348 40.8767 31.4587 40.424L29.95 40.2973V6.06786ZM25.7 11.1277H28.25V41.083C28.2484 41.5287 28.5867 41.901 29.0277 41.9388L31.3151 42.1357C31.9385 42.1882 32.5617 42.2529 33.1851 42.33C33.3933 42.3548 33.5999 42.3882 33.8081 42.4156C34.2204 42.4712 34.6326 42.5268 35.0432 42.5927C35.288 42.6321 35.5319 42.6783 35.7759 42.722C36.1482 42.7879 36.5205 42.8538 36.8911 42.9274C37.1461 42.9787 37.4011 43.0352 37.6561 43.0908C38.0139 43.1679 38.3718 43.2466 38.7279 43.3322C38.9829 43.3938 39.2422 43.4597 39.4989 43.5256C39.8499 43.6163 40.2001 43.7088 40.5495 43.8063C40.8045 43.8782 41.0595 43.9535 41.3145 44.0289C41.6613 44.1321 42.0072 44.2394 42.3523 44.3507C42.6051 44.4316 42.8572 44.515 43.1088 44.6006C43.4565 44.7178 43.8016 44.8411 44.1467 44.9669C44.3915 45.0525 44.6371 45.1458 44.8802 45.239C44.9856 45.2793 45.0902 45.3246 45.1947 45.364H25.7V11.1277ZM73.3 45.3623H53.818C53.9344 45.3169 54.05 45.269 54.1665 45.2245C54.4215 45.1261 54.6765 45.0328 54.9374 44.9395C55.2706 44.818 55.6052 44.7002 55.9413 44.586C56.2031 44.5004 56.4666 44.4149 56.7292 44.3293C57.065 44.2214 57.4024 44.1187 57.7399 44.0177C58.0051 43.939 58.2711 43.8611 58.5372 43.7875C58.8772 43.6916 59.2172 43.6018 59.5657 43.5136C59.8292 43.446 60.0935 43.3784 60.3587 43.3151C60.7123 43.2295 61.0685 43.1525 61.4246 43.0763C61.6796 43.0206 61.9346 42.9633 62.1947 42.912C62.5687 42.8375 62.9444 42.7716 63.3193 42.7057C63.5624 42.6629 63.8046 42.6201 64.0486 42.5773C64.4676 42.5106 64.8875 42.4532 65.3083 42.3967C65.5097 42.3702 65.7112 42.3377 65.9135 42.3111C66.5369 42.2353 67.1633 42.1705 67.7928 42.1169L69.9697 41.9388C70.4117 41.9022 70.7515 41.5295 70.75 41.083V11.1277H73.3V45.3623Z" fill="#A5A4AF"/>
</g>
</g>
<path d="M99.364 19.7L93.607 33H90.567L84.829 19.7H88.154L92.201 29.2L96.305 19.7H99.364ZM99.596 22.778H102.56V33H99.596V22.778ZM101.078 21.353C100.533 21.353 100.09 21.1947 99.748 20.878C99.406 20.5613 99.235 20.1687 99.235 19.7C99.235 19.2313 99.406 18.8387 99.748 18.522C100.09 18.2053 100.533 18.047 101.078 18.047C101.623 18.047 102.066 18.199 102.408 18.503C102.75 18.807 102.921 19.187 102.921 19.643C102.921 20.137 102.75 20.5487 102.408 20.878C102.066 21.1947 101.623 21.353 101.078 21.353ZM107.287 24.127C107.642 23.633 108.117 23.2593 108.712 23.006C109.32 22.7527 110.017 22.626 110.802 22.626V25.362C110.473 25.3367 110.251 25.324 110.137 25.324C109.288 25.324 108.623 25.5647 108.142 26.046C107.661 26.5147 107.42 27.224 107.42 28.174V33H104.456V22.778H107.287V24.127ZM118.655 32.506C118.363 32.7213 118.002 32.886 117.572 33C117.154 33.1013 116.71 33.152 116.242 33.152C115.026 33.152 114.082 32.8417 113.411 32.221C112.752 31.6003 112.423 30.6883 112.423 29.485V25.286H110.846V23.006H112.423V20.517H115.387V23.006H117.933V25.286H115.387V29.447C115.387 29.8777 115.494 30.2133 115.71 30.454C115.938 30.682 116.254 30.796 116.66 30.796C117.128 30.796 117.527 30.6693 117.857 30.416L118.655 32.506ZM129.762 22.778V33H126.95V31.784C126.557 32.2273 126.088 32.5693 125.544 32.81C124.999 33.038 124.41 33.152 123.777 33.152C122.434 33.152 121.37 32.7657 120.585 31.993C119.799 31.2203 119.407 30.074 119.407 28.554V22.778H122.371V28.117C122.371 29.7637 123.061 30.587 124.442 30.587C125.151 30.587 125.721 30.359 126.152 29.903C126.582 29.4343 126.798 28.744 126.798 27.832V22.778H129.762ZM135.776 22.626C137.359 22.626 138.575 23.006 139.424 23.766C140.272 24.5133 140.697 25.647 140.697 27.167V33H137.923V31.727C137.365 32.677 136.327 33.152 134.807 33.152C134.021 33.152 133.337 33.019 132.755 32.753C132.185 32.487 131.748 32.1197 131.444 31.651C131.14 31.1823 130.988 30.6503 130.988 30.055C130.988 29.105 131.342 28.3577 132.052 27.813C132.774 27.2683 133.882 26.996 135.377 26.996H137.733C137.733 26.35 137.536 25.856 137.144 25.514C136.751 25.1593 136.162 24.982 135.377 24.982C134.832 24.982 134.294 25.0707 133.762 25.248C133.242 25.4127 132.799 25.6407 132.432 25.932L131.368 23.861C131.925 23.4683 132.59 23.1643 133.363 22.949C134.148 22.7337 134.952 22.626 135.776 22.626ZM135.548 31.157C136.054 31.157 136.504 31.043 136.897 30.815C137.289 30.5743 137.568 30.226 137.733 29.77V28.725H135.7C134.484 28.725 133.876 29.124 133.876 29.922C133.876 30.302 134.021 30.606 134.313 30.834C134.617 31.0493 135.028 31.157 135.548 31.157ZM142.524 18.902H145.488V33H142.524V18.902ZM153.958 33.228C152.603 33.228 151.374 32.9367 150.272 32.354C149.183 31.7587 148.321 30.9417 147.688 29.903C147.067 28.8517 146.757 27.6673 146.757 26.35C146.757 25.0327 147.067 23.8547 147.688 22.816C148.321 21.7647 149.183 20.9477 150.272 20.365C151.374 19.7697 152.609 19.472 153.977 19.472C155.13 19.472 156.168 19.6747 157.093 20.08C158.03 20.4853 158.816 21.068 159.449 21.828L157.473 23.652C156.574 22.6133 155.459 22.094 154.129 22.094C153.306 22.094 152.571 22.2777 151.925 22.645C151.279 22.9997 150.772 23.5 150.405 24.146C150.05 24.792 149.873 25.5267 149.873 26.35C149.873 27.1733 150.05 27.908 150.405 28.554C150.772 29.2 151.279 29.7067 151.925 30.074C152.571 30.4287 153.306 30.606 154.129 30.606C155.459 30.606 156.574 30.0803 157.473 29.029L159.449 30.853C158.816 31.6257 158.03 32.2147 157.093 32.62C156.156 33.0253 155.111 33.228 153.958 33.228ZM164.512 22.626C166.096 22.626 167.312 23.006 168.16 23.766C169.009 24.5133 169.433 25.647 169.433 27.167V33H166.659V31.727C166.102 32.677 165.063 33.152 163.543 33.152C162.758 33.152 162.074 33.019 161.491 32.753C160.921 32.487 160.484 32.1197 160.18 31.651C159.876 31.1823 159.724 30.6503 159.724 30.055C159.724 29.105 160.079 28.3577 160.788 27.813C161.51 27.2683 162.619 26.996 164.113 26.996H166.469C166.469 26.35 166.273 25.856 165.88 25.514C165.488 25.1593 164.899 24.982 164.113 24.982C163.569 24.982 163.03 25.0707 162.498 25.248C161.979 25.4127 161.536 25.6407 161.168 25.932L160.104 23.861C160.662 23.4683 161.327 23.1643 162.099 22.949C162.885 22.7337 163.689 22.626 164.512 22.626ZM164.284 31.157C164.791 31.157 165.241 31.043 165.633 30.815C166.026 30.5743 166.305 30.226 166.469 29.77V28.725H164.436C163.22 28.725 162.612 29.124 162.612 29.922C162.612 30.302 162.758 30.606 163.049 30.834C163.353 31.0493 163.765 31.157 164.284 31.157ZM174.092 24.127C174.447 23.633 174.922 23.2593 175.517 23.006C176.125 22.7527 176.822 22.626 177.607 22.626V25.362C177.278 25.3367 177.056 25.324 176.942 25.324C176.093 25.324 175.428 25.5647 174.947 26.046C174.466 26.5147 174.225 27.224 174.225 28.174V33H171.261V22.778H174.092V24.127ZM188.834 18.902V33H186.003V31.822C185.268 32.7087 184.204 33.152 182.811 33.152C181.848 33.152 180.974 32.9367 180.189 32.506C179.416 32.0753 178.808 31.461 178.365 30.663C177.921 29.865 177.7 28.9403 177.7 27.889C177.7 26.8377 177.921 25.913 178.365 25.115C178.808 24.317 179.416 23.7027 180.189 23.272C180.974 22.8413 181.848 22.626 182.811 22.626C184.115 22.626 185.135 23.0377 185.87 23.861V18.902H188.834ZM183.324 30.72C184.071 30.72 184.692 30.4667 185.186 29.96C185.68 29.4407 185.927 28.7503 185.927 27.889C185.927 27.0277 185.68 26.3437 185.186 25.837C184.692 25.3177 184.071 25.058 183.324 25.058C182.564 25.058 181.937 25.3177 181.443 25.837C180.949 26.3437 180.702 27.0277 180.702 27.889C180.702 28.7503 180.949 29.4407 181.443 29.96C181.937 30.4667 182.564 30.72 183.324 30.72Z" fill="#A5A4AF"/>
<defs>
<filter id="filter0_dd_22_84" x="0" y="0" width="79" height="75" filterUnits="userSpaceOnUse" color-interpolation-filters="sRGB">
<feFlood flood-opacity="0" result="BackgroundImageFix"/>
<feColorMatrix in="SourceAlpha" type="matrix" values="0 0 0 0 0 0 0 0 0 0 0 0 0 0 0 0 0 0 127 0" result="hardAlpha"/>
<feOffset dx="-19" dy="23"/>
<feGaussianBlur stdDeviation="2.5"/>
<feComposite in2="hardAlpha" operator="out"/>
<feColorMatrix type="matrix" values="0 0 0 0 0.270521 0 0 0 0 0.285403 0 0 0 0 0.441667 0 0 0 1 0"/>
<feBlend mode="normal" in2="BackgroundImageFix" result="effect1_dropShadow_22_84"/>
<feColorMatrix in="SourceAlpha" type="matrix" values="0 0 0 0 0 0 0 0 0 0 0 0 0 0 0 0 0 0 127 0" result="hardAlpha"/>
<feOffset dy="4"/>
<feGaussianBlur stdDeviation="2"/>
<feComposite in2="hardAlpha" operator="out"/>
<feColorMatrix type="matrix" values="0 0 0 0 0 0 0 0 0 0 0 0 0 0 0 0 0 0 0.25 0"/>
<feBlend mode="normal" in2="effect1_dropShadow_22_84" result="effect2_dropShadow_22_84"/>
<feBlend mode="normal" in="SourceGraphic" in2="effect2_dropShadow_22_84" result="shape"/>
</filter>
<clipPath id="clip0_22_84">
<rect x="24" width="51" height="47" rx="5" fill="white"/>
</clipPath>
</defs>
</svg>
