<svg width="25" height="27" viewBox="0 0 25 27" fill="none" xmlns="http://www.w3.org/2000/svg">
<path d="M12.7605 2.25H11.6147C11.2709 0.95625 10.1668 0 8.85425 0C7.54175 0 6.43758 0.95625 6.09383 2.25H4.948C4.52091 2.25 4.16675 2.6325 4.16675 3.09375V4.78125C4.16675 5.86125 4.98967 6.75 5.98967 6.75H11.7188C12.7188 6.75 13.5418 5.86125 13.5418 4.78125V3.09375C13.5418 2.6325 13.1876 2.25 12.7605 2.25Z" fill="#71708C"/>
<path d="M14.8437 3.375H14.5833V4.78125C14.5833 6.49125 13.3021 7.875 11.7188 7.875H5.98958C4.40625 7.875 3.125 6.49125 3.125 4.78125V3.375H2.86458C1.28125 3.375 0 4.75875 0 6.46875V20.5312C0 22.2412 1.28125 23.625 2.86458 23.625H10.5521L10.7812 22.2412C10.8854 21.6112 11.1562 21.0487 11.5729 20.5875L12.4062 19.6875H3.90625C3.47917 19.6875 3.125 19.305 3.125 18.8437C3.125 18.3825 3.47917 18 3.90625 18H13.8021C13.8542 18 13.8958 18 13.9479 18.0225H13.9583L17.7083 13.9725V6.46875C17.7083 4.75875 16.4271 3.375 14.8437 3.375ZM13.8021 16.0312H3.90625C3.47917 16.0312 3.125 15.6487 3.125 15.1875C3.125 14.7262 3.47917 14.3437 3.90625 14.3437H13.8021C14.2292 14.3437 14.5833 14.7262 14.5833 15.1875C14.5833 15.6487 14.2292 16.0312 13.8021 16.0312ZM13.8021 12.375H3.90625C3.47917 12.375 3.125 11.9925 3.125 11.5312C3.125 11.07 3.47917 10.6875 3.90625 10.6875H13.8021C14.2292 10.6875 14.5833 11.07 14.5833 11.5312C14.5833 11.9925 14.2292 12.375 13.8021 12.375Z" fill="#71708C"/>
<path d="M13.0489 27C12.8437 27 12.6437 26.9123 12.4968 26.7525C12.3166 26.5579 12.2354 26.2811 12.2802 26.0089L12.8322 22.6283C12.8593 22.4584 12.9364 22.3009 13.0489 22.1783L20.7833 13.8263C21.7333 12.798 22.6666 13.0759 23.177 13.6271L24.4656 15.0188C25.177 15.786 25.177 17.0348 24.4656 17.8031L16.7312 26.1563C16.6187 26.2789 16.4729 26.361 16.3145 26.3903L13.1843 26.9865C13.1395 26.9955 13.0937 27 13.0489 27ZM16.1791 25.56H16.1895H16.1791Z" fill="#71708C"/>
</svg>
