<svg width="26" height="30" viewBox="0 0 26 30" fill="none" xmlns="http://www.w3.org/2000/svg">
<path d="M12.8034 14.4511C14.8657 14.4511 16.6515 13.739 18.1106 12.3342C19.5698 10.9295 20.3095 9.21085 20.3095 7.22531C20.3095 5.24046 19.5698 3.52156 18.1104 2.11646C16.651 0.712048 14.8655 0 12.8034 0C10.7408 0 8.95543 0.712048 7.49629 2.11669C6.03715 3.52133 5.29724 5.24023 5.29724 7.22531C5.29724 9.21085 6.03715 10.9297 7.49653 12.3344C8.95591 13.7388 10.7415 14.4511 12.8034 14.4511Z" fill="white" fill-opacity="0.37"/>
<path d="M25.937 23.0684C25.8949 22.4838 25.8098 21.8461 25.6845 21.1728C25.558 20.4944 25.3951 19.8531 25.2002 19.2669C24.9988 18.6611 24.7249 18.0628 24.3863 17.4894C24.0349 16.8943 23.6222 16.3761 23.159 15.9497C22.6747 15.5037 22.0817 15.145 21.396 14.8834C20.7127 14.6232 19.9554 14.4913 19.1454 14.4913C18.8273 14.4913 18.5196 14.617 17.9254 14.9894C17.5598 15.2189 17.132 15.4844 16.6546 15.7781C16.2464 16.0285 15.6933 16.2631 15.0103 16.4755C14.3438 16.6831 13.6672 16.7884 12.9993 16.7884C12.3314 16.7884 11.655 16.6831 10.9878 16.4755C10.3055 16.2633 9.75244 16.0287 9.34468 15.7783C8.87177 15.4874 8.44381 15.2219 8.07266 14.9891C7.47921 14.6167 7.17132 14.4911 6.85319 14.4911C6.04291 14.4911 5.28588 14.6232 4.60279 14.8836C3.91757 15.1448 3.32436 15.5034 2.83957 15.95C2.37665 16.3766 1.96366 16.8946 1.61273 17.4894C1.27439 18.0628 1.00049 18.6608 0.798873 19.2671C0.604148 19.8533 0.441282 20.4944 0.314794 21.1728C0.189495 21.8452 0.104377 22.4831 0.0622931 23.0691C0.0209229 23.6431 0 24.2389 0 24.8406C0 26.4066 0.517128 27.6743 1.53688 28.6093C2.54403 29.5319 3.87668 30 5.49725 30H20.5028C22.1233 30 23.4555 29.5322 24.4629 28.6093C25.4829 27.675 26 26.407 26 24.8404C25.9998 24.2359 25.9786 23.6396 25.937 23.0684Z" fill="white" fill-opacity="0.37"/>
</svg>
