<svg width="67" height="67" viewBox="0 0 67 67" fill="none" xmlns="http://www.w3.org/2000/svg">
<path d="M57.1881 9.8119C50.8608 3.48464 42.448 0 33.5 0C24.5515 0 16.1392 3.48464 9.8119 9.8119C3.48464 16.1392 0 24.5515 0 33.5C0 42.448 3.48464 50.8608 9.8119 57.1881C16.1392 63.5154 24.5515 67 33.5 67C42.448 67 50.8608 63.5154 57.1881 57.1881C63.5154 50.8608 67 42.448 67 33.5C67 24.5515 63.5154 16.1392 57.1881 9.8119ZM16.7945 57.8904C18.1956 49.8232 25.1863 43.8727 33.5 43.8727C41.8142 43.8727 48.8044 49.8232 50.2055 57.8904C45.4491 61.1584 39.6944 63.0742 33.5 63.0742C27.3056 63.0742 21.5509 61.1584 16.7945 57.8904ZM22.8483 29.2951C22.8483 23.4213 27.6267 18.6434 33.5 18.6434C39.3733 18.6434 44.1517 23.4218 44.1517 29.2951C44.1517 35.1685 39.3733 39.9469 33.5 39.9469C27.6267 39.9469 22.8483 35.1685 22.8483 29.2951ZM53.6058 55.1674C52.5492 51.4119 50.4509 48.0044 47.5096 45.3428C45.7052 43.7096 43.6513 42.4209 41.4431 41.5126C45.4343 38.9092 48.078 34.4053 48.078 29.2951C48.078 21.257 41.5381 14.7176 33.5 14.7176C25.4619 14.7176 18.9225 21.257 18.9225 29.2951C18.9225 34.4053 21.5662 38.9092 25.5569 41.5126C23.3492 42.4209 21.2948 43.7091 19.4904 45.3423C16.5496 48.0039 14.4508 51.4114 13.3942 55.1669C7.57451 49.7623 3.92578 42.0498 3.92578 33.5C3.92578 17.1927 17.1927 3.92578 33.5 3.92578C49.8073 3.92578 63.0742 17.1927 63.0742 33.5C63.0742 42.0503 59.4255 49.7629 53.6058 55.1674Z" fill="white"/>
</svg>
