<svg width="20" height="21" viewBox="0 0 20 21" fill="none" xmlns="http://www.w3.org/2000/svg">
<g clip-path="url(#clip0_11_41)">
<path d="M8.04939 16.9083C9.83702 16.9084 11.5735 16.3119 12.9838 15.2135L18.3045 20.5341C18.7019 20.918 19.3353 20.907 19.7191 20.5095C20.0936 20.1218 20.0936 19.5071 19.7191 19.1194L14.3985 13.7988C17.1243 10.29 16.4895 5.23593 12.9807 2.51017C9.47196 -0.215582 4.41792 0.419153 1.69217 3.92794C-1.03359 7.43672 -0.398856 12.4908 3.10993 15.2166C4.52253 16.3139 6.26059 16.9092 8.04939 16.9083ZM3.7743 4.58923C6.13539 2.2281 9.96347 2.22806 12.3246 4.58915C14.6857 6.95024 14.6858 10.7783 12.3247 13.1394C9.9636 15.5006 6.13552 15.5006 3.77439 13.1395C3.77435 13.1395 3.77435 13.1395 3.7743 13.1394C1.41322 10.7956 1.3993 6.98144 3.74319 4.62035C3.75355 4.60995 3.7639 4.59959 3.7743 4.58923Z" fill="white"/>
</g>
<defs>
<clipPath id="clip0_11_41">
<rect width="20" height="20" fill="white" transform="translate(0 0.816345)"/>
</clipPath>
</defs>
</svg>
