<svg width="41" height="41" viewBox="0 0 41 41" fill="none" xmlns="http://www.w3.org/2000/svg">
<path d="M20.3335 0.185181C9.22427 0.185181 0.185303 9.22414 0.185303 20.3333C0.185303 26.2863 2.78273 31.6432 6.90135 35.3345V35.3487L7.1935 35.6006C7.24471 35.6451 7.30096 35.682 7.35301 35.7257C8.19286 36.4339 9.08812 37.0737 10.0302 37.6389C10.1015 37.6817 10.1746 37.722 10.2459 37.7632C10.7135 38.0352 11.1912 38.2912 11.6815 38.5254L11.6966 38.5321C12.7543 39.035 13.8541 39.444 14.9833 39.7545L15.0462 39.7721C15.5844 39.919 16.1317 40.0424 16.6866 40.144L16.8419 40.1717C17.3814 40.267 17.9244 40.3403 18.4697 40.3916C18.5327 40.3975 18.5957 40.4009 18.6578 40.4059C19.211 40.4521 19.7685 40.4815 20.3335 40.4815C20.8984 40.4815 21.4559 40.4521 22.0091 40.4059C22.0721 40.4009 22.135 40.3975 22.1972 40.3916C22.747 40.3413 23.2894 40.2657 23.825 40.1717L23.9803 40.144C24.5321 40.0435 25.0794 39.9194 25.6207 39.7721L25.6836 39.7545C26.8128 39.444 27.9126 39.035 28.9703 38.5321L28.9854 38.5254C29.4739 38.2905 29.9528 38.0362 30.421 37.7632C30.4932 37.7212 30.5654 37.6817 30.6367 37.6389C31.0626 37.3834 31.479 37.1124 31.8851 36.8263C31.9892 36.7532 32.0933 36.6802 32.1965 36.6046C32.5793 36.3242 32.9521 36.0313 33.3139 35.7257C33.3659 35.682 33.4222 35.6451 33.4734 35.6006L33.7655 35.3487V35.3345C37.8842 31.6423 40.4816 26.2863 40.4816 20.3333C40.4816 9.22414 31.4426 0.185181 20.3335 0.185181ZM20.3335 20.3333C16.6304 20.3333 13.6174 17.3203 13.6174 13.6173C13.6174 9.91422 16.6304 6.90123 20.3335 6.90123C24.0365 6.90123 27.0495 9.91422 27.0495 13.6173C27.0495 17.3203 24.0365 20.3333 20.3335 20.3333ZM22.852 22.0123C27.9436 22.0123 32.0865 26.1553 32.0865 31.2469V34.5697C32.0513 34.5991 32.0143 34.6259 31.9791 34.6553C31.6475 34.9248 31.3075 35.1808 30.9599 35.426C30.8827 35.4805 30.8071 35.5368 30.7299 35.5897C30.3546 35.8457 29.9693 36.0858 29.5773 36.3133L29.3615 36.4376C27.5689 37.4476 25.6188 38.148 23.5933 38.5095L23.4497 38.5355C22.9724 38.6171 22.4921 38.6801 22.0099 38.7244C21.9436 38.7303 21.8765 38.7345 21.8093 38.7395C21.3199 38.7773 20.8279 38.8025 20.3335 38.8025C19.839 38.8025 19.347 38.7773 18.8576 38.7378L18.657 38.7227C18.1263 38.6742 17.598 38.6025 17.0736 38.5078C15.5642 38.2361 14.0943 37.7776 12.6981 37.1428L12.563 37.0815C12.0605 36.8473 11.5688 36.5904 11.0896 36.3116C10.6976 36.085 10.3123 35.844 9.93701 35.588C9.85893 35.5351 9.78338 35.4789 9.70698 35.4243C9.35841 35.1793 9.01848 34.9223 8.68782 34.6536C8.65256 34.6251 8.61562 34.5974 8.58036 34.568V31.2469C8.58036 26.1553 12.7233 22.0123 17.8149 22.0123H22.852V22.0123ZM33.7655 32.9897V31.2469C33.7655 25.9824 30.018 21.5766 25.0515 20.5558C26.1838 19.7868 27.1108 18.7526 27.7517 17.5432C28.3926 16.3338 28.7279 14.986 28.7285 13.6173C28.7285 8.98824 24.9625 5.22222 20.3335 5.22222C15.7044 5.22222 11.9384 8.98824 11.9384 13.6173C11.939 14.986 12.2743 16.3338 12.9152 17.5432C13.5562 18.7526 14.4831 19.7868 15.6154 20.5558C10.6489 21.5766 6.90135 25.9824 6.90135 31.2469V32.9897C3.78175 29.6812 1.86432 25.2285 1.86432 20.3333C1.86432 10.1493 10.1494 1.86419 20.3335 1.86419C30.5175 1.86419 38.8026 10.1493 38.8026 20.3333C38.8026 25.2285 36.8852 29.6812 33.7655 32.9897Z" fill="#F6851B"/>
</svg>
