<svg width="17" height="15" viewBox="0 0 17 15" fill="none" xmlns="http://www.w3.org/2000/svg">
<path d="M15.7857 4.57031C15.7857 4.04297 15.7177 3.57747 15.5818 3.17383C15.4458 2.77018 15.2719 2.44954 15.06 2.21191C14.8481 1.97428 14.5904 1.7806 14.2868 1.63086C13.9833 1.48112 13.686 1.38021 13.3951 1.32812C13.1042 1.27604 12.7943 1.25 12.4654 1.25C12.1365 1.25 11.7824 1.33301 11.4029 1.49902C11.0234 1.66504 10.674 1.87337 10.3546 2.12402C10.0352 2.37467 9.76172 2.60905 9.53404 2.82715C9.30636 3.04525 9.11663 3.24544 8.96484 3.42773C8.851 3.57096 8.69606 3.64258 8.5 3.64258C8.30394 3.64258 8.149 3.57096 8.03516 3.42773C7.88337 3.24544 7.69364 3.04525 7.46596 2.82715C7.23828 2.60905 6.96475 2.37467 6.64537 2.12402C6.32599 1.87337 5.97656 1.66504 5.5971 1.49902C5.21763 1.33301 4.86347 1.25 4.5346 1.25C4.20573 1.25 3.89583 1.27604 3.60491 1.32812C3.31399 1.38021 3.01674 1.48112 2.71317 1.63086C2.4096 1.7806 2.15188 1.97428 1.94001 2.21191C1.72814 2.44954 1.55422 2.77018 1.41825 3.17383C1.28227 3.57747 1.21429 4.04297 1.21429 4.57031C1.21429 5.66406 1.80562 6.81966 2.98828 8.03711L8.5 13.5059L14.0022 8.04688C15.1912 6.82292 15.7857 5.66406 15.7857 4.57031ZM17 4.57031C17 6.00911 16.2759 7.47396 14.8276 8.96484L8.91741 14.8242C8.80357 14.9414 8.66443 15 8.5 15C8.33557 15 8.19643 14.9414 8.08259 14.8242L2.16295 8.94531C2.0997 8.89323 2.01274 8.80859 1.90206 8.69141C1.79139 8.57422 1.61589 8.361 1.37556 8.05176C1.13523 7.74251 0.920201 7.42513 0.730469 7.09961C0.540737 6.77409 0.371559 6.38021 0.222935 5.91797C0.0743118 5.45573 0 5.00651 0 4.57031C0 3.13802 0.4016 2.01823 1.2048 1.21094C2.008 0.403646 3.11793 0 4.5346 0C4.92671 0 5.32673 0.069987 5.73465 0.209961C6.14258 0.349935 6.52204 0.538737 6.87305 0.776367C7.22405 1.014 7.52604 1.23698 7.77902 1.44531C8.03199 1.65365 8.27232 1.875 8.5 2.10938C8.72768 1.875 8.96801 1.65365 9.22098 1.44531C9.47396 1.23698 9.77595 1.014 10.127 0.776367C10.478 0.538737 10.8574 0.349935 11.2653 0.209961C11.6733 0.069987 12.0733 0 12.4654 0C13.8821 0 14.992 0.403646 15.7952 1.21094C16.5984 2.01823 17 3.13802 17 4.57031Z" fill="#DD2E44"/>
</svg>
