<svg width="32" height="32" viewBox="0 0 32 32" fill="none" xmlns="http://www.w3.org/2000/svg">
<path d="M16 17.3333C15.6464 17.3333 15.3072 17.4738 15.0572 17.7238C14.8071 17.9739 14.6666 18.313 14.6666 18.6666V22.6666C14.6666 23.0202 14.8071 23.3594 15.0572 23.6094C15.3072 23.8595 15.6464 24 16 24C16.3536 24 16.6927 23.8595 16.9428 23.6094C17.1928 23.3594 17.3333 23.0202 17.3333 22.6666V18.6666C17.3333 18.313 17.1928 17.9739 16.9428 17.7238C16.6927 17.4738 16.3536 17.3333 16 17.3333ZM22.6666 12V9.33329C22.6666 7.56518 21.9643 5.86949 20.714 4.61925C19.4638 3.369 17.7681 2.66663 16 2.66663C14.2319 2.66663 12.5362 3.369 11.2859 4.61925C10.0357 5.86949 9.33331 7.56518 9.33331 9.33329V12C8.27245 12 7.25503 12.4214 6.50489 13.1715C5.75474 13.9217 5.33331 14.9391 5.33331 16V25.3333C5.33331 26.3942 5.75474 27.4116 6.50489 28.1617C7.25503 28.9119 8.27245 29.3333 9.33331 29.3333H22.6666C23.7275 29.3333 24.7449 28.9119 25.4951 28.1617C26.2452 27.4116 26.6666 26.3942 26.6666 25.3333V16C26.6666 14.9391 26.2452 13.9217 25.4951 13.1715C24.7449 12.4214 23.7275 12 22.6666 12ZM12 9.33329C12 8.27243 12.4214 7.25501 13.1716 6.50487C13.9217 5.75472 14.9391 5.33329 16 5.33329C17.0608 5.33329 18.0783 5.75472 18.8284 6.50487C19.5786 7.25501 20 8.27243 20 9.33329V12H12V9.33329ZM24 25.3333C24 25.6869 23.8595 26.0261 23.6095 26.2761C23.3594 26.5262 23.0203 26.6666 22.6666 26.6666H9.33331C8.97969 26.6666 8.64055 26.5262 8.3905 26.2761C8.14046 26.0261 7.99998 25.6869 7.99998 25.3333V16C7.99998 15.6463 8.14046 15.3072 8.3905 15.0572C8.64055 14.8071 8.97969 14.6666 9.33331 14.6666H22.6666C23.0203 14.6666 23.3594 14.8071 23.6095 15.0572C23.8595 15.3072 24 15.6463 24 16V25.3333Z" fill="black"/>
</svg>
