<svg width="30" height="30" viewBox="0 0 30 30" fill="none" xmlns="http://www.w3.org/2000/svg">
<path d="M29.2763 27.3907L21.7092 19.8237C23.4118 17.6988 24.3376 15.0562 24.3333 12.3333C24.3333 5.70601 18.9609 0.333344 12.3333 0.333344C5.70592 0.333344 0.333252 5.70601 0.333252 12.3333C0.333252 18.9607 5.70592 24.3333 12.3333 24.3333C15.1666 24.3333 17.7706 23.3513 19.8236 21.709L27.3906 29.276C27.5142 29.4 27.6612 29.4983 27.8229 29.5654C27.9847 29.6324 28.1581 29.6669 28.3333 29.6667C28.5969 29.6667 28.8547 29.5885 29.074 29.442C29.2933 29.2955 29.4642 29.0873 29.5651 28.8437C29.666 28.6001 29.6925 28.332 29.641 28.0734C29.5896 27.8147 29.4627 27.5772 29.2763 27.3907ZM12.3333 21.6667C7.17859 21.6667 2.99992 17.488 2.99992 12.3333C2.99992 7.17868 7.17859 3.00001 12.3333 3.00001C17.4883 3.00001 21.6666 7.17868 21.6666 12.3333C21.6666 17.488 17.4883 21.6667 12.3333 21.6667Z" fill="#F6851B"/>
</svg>
