<svg width="27" height="22" viewBox="0 0 27 22" fill="none" xmlns="http://www.w3.org/2000/svg">
<path d="M22.6667 0H4C2.93913 0 1.92172 0.421427 1.17157 1.17157C0.421427 1.92172 0 2.93913 0 4V17.3333C0 18.3942 0.421427 19.4116 1.17157 20.1618C1.92172 20.9119 2.93913 21.3333 4 21.3333H22.6667C23.7275 21.3333 24.7449 20.9119 25.4951 20.1618C26.2452 19.4116 26.6667 18.3942 26.6667 17.3333V4C26.6667 2.93913 26.2452 1.92172 25.4951 1.17157C24.7449 0.421427 23.7275 0 22.6667 0ZM21.7733 2.66667L13.3333 9L4.89333 2.66667H21.7733ZM22.6667 18.6667H4C3.64638 18.6667 3.30724 18.5262 3.05719 18.2761C2.80714 18.0261 2.66667 17.687 2.66667 17.3333V4.33333L12.5333 11.7333C12.7641 11.9064 13.0448 12 13.3333 12C13.6218 12 13.9025 11.9064 14.1333 11.7333L24 4.33333V17.3333C24 17.687 23.8595 18.0261 23.6095 18.2761C23.3594 18.5262 23.0203 18.6667 22.6667 18.6667Z" fill="black"/>
</svg>
