<svg width="28" height="24" viewBox="0 0 28 24" fill="none" xmlns="http://www.w3.org/2000/svg">
<path d="M26.9425 11.0573L16.2758 0.390659C16.0894 0.204188 15.8518 0.0771939 15.5932 0.0257375C15.3346 -0.025719 15.0665 0.000672996 14.8229 0.101576C14.5793 0.202479 14.371 0.373362 14.2245 0.592612C14.078 0.811862 13.9998 1.06963 13.9998 1.33333V6.05989C10.3576 6.39702 6.97218 8.08115 4.50614 10.7827C2.04011 13.4843 0.670915 17.0088 0.666504 20.6667V22.6667C0.666483 22.9436 0.752672 23.2136 0.913107 23.4393C1.07354 23.665 1.30026 23.8351 1.56179 23.9261C1.82332 24.0171 2.10669 24.0243 2.37255 23.9469C2.63842 23.8695 2.87358 23.7113 3.04541 23.4941C4.3516 21.9407 5.95428 20.6632 7.75979 19.7362C9.56531 18.8092 11.5375 18.2512 13.561 18.095C13.6274 18.0866 13.7941 18.0736 13.9998 18.0605V22.6667C13.9998 22.9304 14.078 23.1881 14.2245 23.4074C14.371 23.6266 14.5793 23.7975 14.8229 23.8984C15.0665 23.9993 15.3346 24.0257 15.5932 23.9742C15.8518 23.9228 16.0894 23.7958 16.2758 23.6093L26.9425 12.9427C27.0663 12.8189 27.1646 12.6719 27.2316 12.5102C27.2986 12.3484 27.3331 12.1751 27.3331 12C27.3331 11.8249 27.2986 11.6515 27.2316 11.4898C27.1646 11.3281 27.0663 11.1811 26.9425 11.0573ZM16.6665 19.4479V16.6667C16.6665 16.4915 16.6321 16.3181 16.5651 16.1564C16.4981 15.9946 16.3999 15.8476 16.2761 15.7237C16.1523 15.5999 16.0053 15.5017 15.8435 15.4347C15.6817 15.3677 15.5083 15.3333 15.3332 15.3333C14.9933 15.3333 13.6053 15.3991 13.2511 15.4467C9.65727 15.7777 6.23631 17.143 3.40218 19.3776C3.72369 16.4367 5.11874 13.7177 7.32019 11.7414C9.52164 9.76509 12.3748 8.67028 15.3332 8.66666C15.5083 8.6667 15.6817 8.63225 15.8435 8.56526C16.0053 8.49827 16.1523 8.40006 16.2761 8.27624C16.3999 8.15242 16.4981 8.00541 16.5651 7.84362C16.6321 7.68184 16.6665 7.50843 16.6665 7.33333V4.55207L24.1144 12L16.6665 19.4479Z" fill="#333333"/>
</svg>
