<svg width="30" height="30" viewBox="0 0 30 30" fill="none" xmlns="http://www.w3.org/2000/svg">
<path d="M10.0008 15C10.0008 12.2387 12.2387 9.9996 15 9.9996C17.7613 9.9996 20.0004 12.2387 20.0004 15C20.0004 17.7613 17.7613 20.0004 15 20.0004C12.2387 20.0004 10.0008 17.7613 10.0008 15ZM7.29766 15C7.29766 19.254 10.746 22.7023 15 22.7023C19.254 22.7023 22.7023 19.254 22.7023 15C22.7023 10.746 19.254 7.29766 15 7.29766C10.746 7.29766 7.29766 10.746 7.29766 15ZM21.2072 6.99233C21.2072 7.98586 22.0129 8.79281 23.0077 8.79281C24.0012 8.79281 24.8082 7.98586 24.8082 6.99233C24.8082 5.99879 24.0024 5.19305 23.0077 5.19305C22.0129 5.19305 21.2072 5.99879 21.2072 6.99233ZM8.93942 27.2096C7.47698 27.143 6.68215 26.8994 6.15388 26.6935C5.45355 26.4208 4.95436 26.0961 4.42851 25.5715C3.90388 25.0468 3.57795 24.5477 3.30654 23.8473C3.10057 23.3191 2.85703 22.5242 2.79039 21.0618C2.71769 19.4806 2.70315 19.0057 2.70315 15C2.70315 10.9943 2.7189 10.5206 2.79039 8.93821C2.85703 7.47577 3.10178 6.68215 3.30654 6.15267C3.57916 5.45234 3.90388 4.95315 4.42851 4.4273C4.95315 3.90267 5.45234 3.57674 6.15388 3.30533C6.68215 3.09935 7.47698 2.85582 8.93942 2.78918C10.5206 2.71648 10.9956 2.70194 15 2.70194C19.0057 2.70194 19.4794 2.71769 21.0618 2.78918C22.5242 2.85582 23.3179 3.10057 23.8473 3.30533C24.5477 3.57674 25.0469 3.90267 25.5727 4.4273C26.0973 4.95194 26.4221 5.45234 26.6947 6.15267C26.9006 6.68094 27.1442 7.47577 27.2108 8.93821C27.2835 10.5206 27.2981 10.9943 27.2981 15C27.2981 19.0044 27.2835 19.4794 27.2108 21.0618C27.1442 22.5242 26.8994 23.3191 26.6947 23.8473C26.4221 24.5477 26.0973 25.0468 25.5727 25.5715C25.0481 26.0961 24.5477 26.4208 23.8473 26.6935C23.3191 26.8994 22.5242 27.143 21.0618 27.2096C19.4806 27.2823 19.0057 27.2968 15 27.2968C10.9956 27.2968 10.5206 27.2823 8.93942 27.2096V27.2096ZM8.81583 0.0908724C7.2189 0.16357 6.12843 0.416801 5.17488 0.787561C4.18861 1.17044 3.35258 1.68417 2.51777 2.51777C1.68417 3.35137 1.17044 4.1874 0.787561 5.17488C0.416801 6.12843 0.16357 7.2189 0.0908724 8.81583C0.0169628 10.4152 0 10.9265 0 15C0 19.0735 0.0169628 19.5848 0.0908724 21.1842C0.16357 22.7811 0.416801 23.8716 0.787561 24.8251C1.17044 25.8114 1.68296 26.6486 2.51777 27.4822C3.35137 28.3158 4.1874 28.8284 5.17488 29.2124C6.12964 29.5832 7.2189 29.8364 8.81583 29.9091C10.4164 29.9818 10.9265 30 15 30C19.0747 30 19.5848 29.983 21.1842 29.9091C22.7811 29.8364 23.8716 29.5832 24.8251 29.2124C25.8114 28.8284 26.6474 28.3158 27.4822 27.4822C28.3158 26.6486 28.8284 25.8114 29.2124 24.8251C29.5832 23.8716 29.8376 22.7811 29.9091 21.1842C29.9818 19.5836 29.9988 19.0735 29.9988 15C29.9988 10.9265 29.9818 10.4152 29.9091 8.81583C29.8364 7.2189 29.5832 6.12843 29.2124 5.17488C28.8284 4.18861 28.3158 3.35258 27.4822 2.51777C26.6486 1.68417 25.8114 1.17044 24.8263 0.787561C23.8716 0.416801 22.7811 0.162359 21.1854 0.0908724C19.586 0.0181745 19.0747 0 15.0012 0C10.9265 0 10.4164 0.0169628 8.81583 0.0908724" fill="#F6851B"/>
</svg>
