<svg width="26" height="22" viewBox="0 0 26 22" fill="none" xmlns="http://www.w3.org/2000/svg">
<path d="M25.5 3.25002C24.5604 3.65764 23.5668 3.9271 22.55 4.05002C23.6227 3.40917 24.4266 2.401 24.8125 1.21252C23.8044 1.8126 22.701 2.23539 21.55 2.46252C20.7807 1.62823 19.7562 1.07289 18.6373 0.883582C17.5183 0.694276 16.3682 0.881716 15.3672 1.4165C14.3663 1.95129 13.5712 2.80318 13.1066 3.83856C12.6419 4.87394 12.5341 6.03426 12.8 7.13752C10.7618 7.03443 8.76805 6.50371 6.94832 5.57985C5.12859 4.65598 3.52356 3.35963 2.2375 1.77502C1.78642 2.56273 1.5494 3.4548 1.55 4.36252C1.5484 5.2055 1.75527 6.03579 2.15219 6.77947C2.54912 7.52316 3.12377 8.15716 3.825 8.62502C3.00997 8.60284 2.21236 8.38414 1.5 7.98752V8.05002C1.50611 9.23113 1.91999 10.3739 2.67164 11.285C3.42329 12.1961 4.46657 12.8196 5.625 13.05C5.17907 13.1857 4.71609 13.2573 4.25 13.2625C3.92736 13.2587 3.60553 13.2295 3.2875 13.175C3.61739 14.191 4.25578 15.079 5.11384 15.7152C5.97191 16.3515 7.00697 16.7045 8.075 16.725C6.2715 18.1441 4.04485 18.9186 1.75 18.925C1.33217 18.9264 0.91467 18.9013 0.5 18.85C2.84304 20.3628 5.57352 21.1659 8.3625 21.1625C10.2871 21.1825 12.1964 20.8188 13.9789 20.0926C15.7614 19.3664 17.3813 18.2924 18.744 16.9331C20.1067 15.5739 21.185 13.9568 21.9157 12.1762C22.6464 10.3955 23.015 8.48718 23 6.56252C23 6.35002 23 6.12502 23 5.90002C23.9809 5.16853 24.8268 4.2718 25.5 3.25002V3.25002Z" fill="#F6851B"/>
</svg>
