<svg width="27" height="27" viewBox="0 0 27 27" fill="none" xmlns="http://www.w3.org/2000/svg">
<path d="M24.5467 0.000182275H1.96C1.70611 -0.0032651 1.454 0.0422182 1.21809 0.134035C0.982175 0.225851 0.767072 0.362202 0.585064 0.535301C0.403056 0.7084 0.257709 0.914856 0.157323 1.14288C0.0569366 1.3709 0.00347786 1.61602 0 1.86424V24.2069C0.00347786 24.4551 0.0569366 24.7003 0.157323 24.9283C0.257709 25.1563 0.403056 25.3628 0.585064 25.5359C0.767072 25.709 0.982175 25.8453 1.21809 25.9371C1.454 26.0289 1.70611 26.0744 1.96 26.071H24.5467C24.8006 26.0744 25.0527 26.0289 25.2886 25.9371C25.5245 25.8453 25.7396 25.709 25.9216 25.5359C26.1037 25.3628 26.249 25.1563 26.3494 24.9283C26.4498 24.7003 26.5032 24.4551 26.5067 24.2069V1.86424C26.5032 1.61602 26.4498 1.3709 26.3494 1.14288C26.249 0.914856 26.1037 0.7084 25.9216 0.535301C25.7396 0.362202 25.5245 0.225851 25.2886 0.134035C25.0527 0.0422182 24.8006 -0.0032651 24.5467 0.000182275V0.000182275ZM8.04001 21.8214H4.04001V10.0896H8.04001V21.8214ZM6.04001 8.44712C5.48836 8.44712 4.9593 8.23288 4.56923 7.85152C4.17915 7.47016 3.96001 6.95292 3.96001 6.4136C3.96001 5.87428 4.17915 5.35704 4.56923 4.97568C4.9593 4.59432 5.48836 4.38008 6.04001 4.38008C6.33294 4.3476 6.62958 4.37598 6.91051 4.46335C7.19144 4.55073 7.45033 4.69513 7.67022 4.8871C7.89011 5.07908 8.06605 5.3143 8.18651 5.57735C8.30697 5.84041 8.36924 6.12538 8.36924 6.4136C8.36924 6.70182 8.30697 6.98678 8.18651 7.24984C8.06605 7.5129 7.89011 7.74812 7.67022 7.9401C7.45033 8.13207 7.19144 8.27647 6.91051 8.36385C6.62958 8.45122 6.33294 8.4796 6.04001 8.44712V8.44712ZM22.4667 21.8214H18.4667V15.5253C18.4667 13.9481 17.8934 12.9183 16.44 12.9183C15.9902 12.9215 15.5523 13.0594 15.1851 13.3135C14.818 13.5675 14.5393 13.9255 14.3867 14.3391C14.2824 14.6455 14.2371 14.9682 14.2534 15.2907V21.8084H10.2534C10.2534 21.8084 10.2534 11.1454 10.2534 10.0765H14.2534V11.732C14.6167 11.1156 15.1452 10.6078 15.7819 10.2632C16.4187 9.91867 17.1395 9.75047 17.8667 9.77673C20.5334 9.77673 22.4667 11.4583 22.4667 15.0691V21.8214Z" fill="#F6851B"/>
</svg>
